<?xml version="1.0" standalone="no"?>
<!DOCTYPE svg PUBLIC "-//W3C//DTD SVG 20010904//EN"
 "http://www.w3.org/TR/2001/REC-SVG-20010904/DTD/svg10.dtd">
<svg version="1.0" xmlns="http://www.w3.org/2000/svg"
 width="400.000000pt" height="400.000000pt" viewBox="0 0 400.000000 400.000000"
 preserveAspectRatio="xMidYMid meet">
<metadata>
Created by potrace 1.11, written by Peter Selinger 2001-2013
</metadata>
<g transform="translate(0.000000,400.000000) scale(0.100000,-0.100000)"
fill="#000000" stroke="none">
<path d="M1848 3995 c-2 -2 -37 -6 -78 -8 -41 -3 -75 -6 -75 -7 0 -1 -12 -3
-26 -5 -14 -2 -43 -8 -65 -14 -21 -5 -55 -13 -74 -16 -19 -3 -93 -26 -165 -51
-184 -64 -195 -68 -195 -76 0 -5 -6 -8 -13 -8 -15 0 -105 -46 -165 -84 -23
-14 -46 -26 -52 -26 -5 0 -10 -4 -10 -9 0 -5 -9 -13 -20 -16 -11 -3 -26 -12
-32 -18 -7 -7 -49 -39 -93 -72 -103 -77 -265 -237 -349 -345 -36 -47 -75 -96
-86 -109 -11 -13 -20 -28 -20 -32 0 -4 -13 -27 -29 -51 -35 -54 -132 -238
-124 -238 3 0 1 -6 -4 -12 -30 -37 -114 -306 -128 -408 -4 -24 -9 -49 -12 -53
-3 -5 -7 -21 -8 -36 -2 -14 -6 -55 -10 -91 -7 -69 -7 -321 0 -405 3 -27 5 -57
6 -65 0 -14 18 -106 26 -140 2 -8 6 -28 8 -45 2 -16 4 -30 5 -30 1 0 4 -9 14
-50 2 -11 9 -32 15 -47 6 -16 8 -28 5 -28 -2 0 2 -13 11 -30 8 -16 14 -33 13
-37 -1 -4 11 -34 25 -67 15 -32 27 -61 27 -63 0 -9 66 -138 105 -206 39 -67
49 -83 90 -143 39 -58 128 -166 186 -227 32 -34 59 -65 59 -69 0 -5 5 -8 11
-8 7 0 26 -15 43 -33 17 -18 72 -63 121 -100 50 -37 95 -72 102 -77 6 -5 27
-18 45 -28 18 -11 56 -33 84 -49 65 -39 208 -107 259 -123 22 -7 45 -16 50
-20 8 -5 59 -22 110 -36 66 -18 178 -45 207 -49 165 -25 224 -30 368 -30 74 0
164 4 200 9 36 4 79 10 95 12 68 8 93 13 155 29 101 26 234 67 245 75 6 4 29
14 53 21 23 6 42 15 42 18 0 4 20 13 45 20 25 7 45 16 45 20 0 4 25 18 55 31
30 13 55 28 55 32 0 4 6 8 13 8 14 0 172 107 238 160 97 78 186 165 259 250
25 29 51 59 58 66 6 7 12 15 12 18 0 5 12 21 45 60 6 7 16 21 22 31 156 250
234 421 287 634 25 100 32 135 41 211 3 19 9 64 14 100 9 64 8 366 -2 405 -3
11 -8 45 -11 75 -8 71 -14 106 -28 155 -6 22 -12 49 -14 60 -1 11 -9 39 -18
63 -8 23 -16 44 -16 47 -2 18 -49 145 -70 190 -31 68 -83 170 -89 175 -3 3 -7
10 -8 16 -3 17 -99 160 -156 234 -98 125 -198 226 -352 353 -52 42 -207 142
-289 186 -148 79 -370 161 -501 186 -51 9 -82 16 -105 21 -14 4 -43 8 -65 10
-60 6 -412 13 -417 9z m367 -299 c334 -51 624 -175 855 -364 68 -56 202 -190
256 -257 128 -156 275 -434 309 -584 2 -9 13 -53 24 -98 29 -115 30 -127 38
-233 13 -201 -1 -436 -31 -520 -3 -8 -8 -27 -11 -42 -12 -63 -16 -79 -27 -105
-6 -16 -12 -32 -14 -38 -34 -123 -192 -416 -271 -505 -8 -8 -37 -42 -66 -75
-83 -95 -210 -212 -270 -250 -18 -10 -36 -25 -40 -32 -4 -7 -14 -13 -21 -13
-7 0 -25 -9 -40 -21 -69 -54 -378 -191 -464 -205 -15 -2 -56 -12 -92 -21 -124
-30 -296 -41 -470 -29 -128 10 -152 12 -185 20 -16 3 -40 9 -52 11 -13 3 -32
7 -43 10 -11 3 -28 7 -37 9 -96 22 -386 143 -404 169 -3 5 -8 8 -10 6 -4 -2
-147 89 -159 101 -3 3 -27 23 -55 44 -78 61 -216 203 -278 286 -31 41 -60 80
-64 85 -22 29 -63 96 -63 104 0 5 -3 11 -8 13 -11 5 -112 224 -119 258 -3 17
-9 30 -14 30 -5 0 -8 3 -7 8 1 4 -5 30 -14 57 -19 59 -29 102 -33 132 -4 29
-16 102 -21 128 -8 37 -17 170 -17 240 1 79 12 225 18 235 2 4 9 35 14 71 28
172 111 398 194 526 15 24 27 45 27 49 0 9 88 132 135 189 55 67 196 207 242
241 21 15 43 33 48 39 6 6 33 25 60 43 28 17 55 35 60 39 93 69 409 201 525
219 19 3 66 12 103 20 38 8 73 12 77 9 5 -3 11 -2 14 3 6 10 338 8 401 -2z"/>
<path d="M1539 2829 c-3 -10 -10 -107 -24 -369 -5 -75 -12 -175 -14 -191 -1
-3 -45 -5 -98 -5 -124 0 -223 -9 -338 -34 -33 -7 -65 -13 -72 -14 -7 -1 -16
-5 -19 -9 -4 -4 -17 -7 -28 -7 -12 -1 -31 -6 -43 -13 -20 -11 -20 -15 -9 -47
18 -49 86 -230 98 -260 5 -14 8 -27 6 -29 -1 -3 -57 -6 -123 -7 -90 -1 -140
-7 -200 -24 -44 -12 -90 -24 -102 -27 -13 -3 -23 -10 -23 -17 0 -11 31 -100
49 -141 5 -11 22 -53 37 -92 15 -40 32 -73 38 -74 6 0 593 -1 1304 -2 l1292
-2 17 35 c17 38 105 223 183 385 26 55 59 124 74 154 14 30 26 58 26 62 0 10
-196 46 -305 55 -94 9 -255 10 -255 2 0 -4 -11 -3 -24 2 -13 5 -26 6 -30 3 -3
-3 -29 -7 -58 -10 -29 -2 -58 -5 -65 -8 -6 -2 -33 22 -61 53 -53 61 -154 164
-193 197 -79 66 -168 130 -264 191 -139 87 -355 172 -560 219 -45 11 -214 29
-216 24z"/>
</g>
</svg>
